<svg xmlns="http://www.w3.org/2000/svg" xmlns:xlink="http://www.w3.org/1999/xlink" viewBox="0 0 834.5 472.7"><style><![CDATA[.F{stroke-linecap:round}.G{fill:#fff}.H{fill:none}.I{stroke-miterlimit:10}.J{stroke:#1c1080}.K{stroke-width:2.5}.L{stroke-linejoin:round}.M{fill:#ffde59}.N{fill:#1c1080}]]></style><g class="G I J K L"><path d="M52.5 98.2c13.7 0 25.2-16.2 25.2-25.4l.5-7.6c1.4-16.6-6.5-32.4-25.7-32.4S26.8 48.7 28.1 65.3l.5 7.6c0 9.1 10.2 25.3 23.9 25.3zm-35 142.7h0c-5.5 0-10.1-4.3-10.4-9.9L1.3 125.2c0-12.2 9.9-22.1 22.1-22.1h0l4.6 127c.2 5.9-4.6 10.8-10.5 10.8z"/><path d="M91.4 193.2h0c5.7.2 10.5-4.2 10.8-9.9l2.9-58.1c0-12.2-9.9-22.1-22.1-22.1h0l-1.7 79.3c-.2 5.8 4.3 10.6 10.1 10.8zM72.9 365H33.4l-10-261.9h59.5z"/><path d="M79.1 301H27.2l-3.8-197.9h59.5z"/></g><path d="M53.2 365V217.1" class="F H I J K L"/><path d="M53.2 384.2H11.4c0-10.6 8.6-19.2 19.2-19.2h22.6v19.2zm.3 0h41.8c0-10.6-8.6-19.2-19.2-19.2H53.5v19.2zM83 103.1h0-59.6c-12.2 0-22.1 9.9-22.1 22.1l1.2 21.6h21.8l1.4 70.2h55.1l1.4-70.2h21.9l1.2-21.6c-.2-12.2-10.1-22.1-22.3-22.1z" class="G I J K L"/><path d="M25.6 217.1l-1.7-86.8m56.7 86.8l1.7-86.8" class="F H I J K L"/><path d="M77.8,58.1H23.4c3-4.8,12.3-8.7,22.3-8.7c10.3,0,19.8,4.4,22.6,8.7" class="F G I J K L"/><path d="M37.2 155.9c-.1 0-.3 0-.4-.1-.5-.2-.7-.7-.6-1.2l2.3-9.6-3.7-.9c-.3-.1-.6-.3-.7-.6s-.1-.6.1-.9l7.4-12.9c.2-.3.5-.5.9-.5.1 0 .2 0 .4.1.5.2.7.7.6 1.2L41 140.9l3.7.9c.3.1.6.3.7.6s.1.6-.1.9l-7.2 12.2c-.2.3-.5.4-.9.4z" class="M"/><path d="M42.4 130.4l-2.7 11.3 4.7 1.1-7.2 12.2 2.5-10.6-4.7-1.1 7.4-12.9m0-2c-.7 0-1.4.4-1.7 1l-7.4 12.9c-.3.5-.4 1.2-.1 1.8s.8 1 1.4 1.2l2.7.7-2.1 8.6c-.2 1 .3 1.9 1.2 2.3.2.1.5.1.7.1.7 0 1.4-.4 1.7-1l7.2-12.2c.3-.5.4-1.2.1-1.8-.2-.6-.8-1-1.4-1.2l-2.7-.7 2.2-9.4c.2-1-.3-2-1.2-2.3h-.6zm0 4h0z" class="N"/><g class="J K L"><g class="I"><path d="M66.4 129.5h50.8v50.8H66.4z" class="G"/><path d="M91.8 129.5v50.8" class="F H"/><path d="M83.7 146.7l-4.8-3.2-4.9 3.2v-17.2h9.7z" class="G"/><path d="M33.4 365v6.6m6.3-6.6v6.6m26.9-6.6v6.6m6.3-6.6v6.6" class="F H"/><g class="G"><path d="M188.3 264.6h0c-5.9 0-10.8-4.6-11.1-10.5l-2.7-110.2c0-13 7-23.5 20-23.5h0l4.9 132.7c.2 6.3-4.9 11.5-11.1 11.5zm76.5-3.4h0c6.2.2 11.5-4.6 11.8-10.8l3.9-113.8c0-13.4-8.4-24.2-21.8-24.2h0l-5 137c-.2 6.3 4.8 11.6 11.1 11.8z"/><path d="M256.2 234.7L251 373.4h-49.8L196 234.7" class="F"/><path d="M259.8 100.9h-68.2V67c0-18.8 15.3-34.1 34.1-34.1h0c18.8 0 34.1 15.3 34.1 34.1v33.9z"/><path d="M236.8 49.4l-38.6 13.2.2 5.7.5 10.5c0 10 11.1 27.8 26.1 27.8s27.6-17.8 27.6-27.8l.5-10.5c.2-1.9.2-3.8.1-5.7l-16.4-13.2z"/></g><path d="M226.1 373.4V234.7" class="F H"/><g class="G"><path d="M256.8 112.5c-20.6 3.8-41.6 3.8-62.3 0-.4-.1-.8-.1-1.1-.1h0c-13.4 0-20.6 10.8-20.6 24.2l2.4 98.1h101.9l3.4-98.1c0-13.4-8.4-24.2-21.8-24.2h0-.8c-.3 0-.6.1-1.1.1z"/><path d="M194.1 142.2l1.9 92.5m60.2 0l1.9-92.5" class="F"/></g><path d="M245.2 115l-1.9 19.1m-30.6 7.2l-6.5-26.3" class="H F"/></g><circle cx="242.5" cy="139.8" r="5.8" class="M"/><g class="I"><path d="M212.6 140.8l-5 6.8c-5 6.8-6.7 15.4-4.7 23.5h0c.8 3.3 4.2 5.3 7.5 4.5h0m2.2-34.8l7.6 3.7c7.5 3.7 13.1 10.5 15.1 18.6h0c.8 3.3-1.2 6.7-4.5 7.5h0" class="F H"/><g class="G"><path d="M226.1 373.4h-22.5c-11.6 0-21 9.4-21 21h26.9a3.8 3.8 0 0 1 7.6 0h9.1v-21z"/><path d="M226.1 373.4h22.5c11.6 0 21 9.4 21 21h0-26.9a3.8 3.8 0 0 0-7.6 0H226v-21zm167.4-276c16.2 0 29.8-19.2 29.8-30l.6-9c1.6-19.6-7.7-38.3-30.4-38.3s-30.4 18.7-28.8 38.3l.6 9c0 10.8 12 30 28.2 30z"/><path d="M365,52.2c7.3-2.8,21.4-11.9,21.4-11.9c24.8,11.6,37,10.8,37,10.8" class="F"/><path d="M352.2 266.1h0c-6.5 0-12-5.1-12.3-11.7L333 129.3c0-14.4 11.7-26.1 26.1-26.1h0l5.4 150.1c.2 7-5.4 12.8-12.3 12.8zm83.8.4h0c6.7.2 12.4-4.9 12.8-11.6l6.9-125.6c0-14.4-11.7-26.1-26.1-26.1h0l-5.4 150.6c-.3 6.8 5 12.5 11.8 12.7z"/><path d="M423.6 400.8h-58.7l-5.8-297.6h70.3z"/></g><path d="M394.3 400.8V237.9" class="F H"/><path d="M394.3 423.5h-49.4c0-12.5 10.2-22.7 22.7-22.7h26.7v22.7zm.4 0h49.4c0-12.5-10.2-22.7-22.7-22.7h-26.7v22.7zm34.8-320.3h0H359c-14.4 0-26.1 11.7-26.1 26.1l1.4 25.6H360l1.6 83h65.1l1.6-83h25.8l1.4-25.6c.1-14.4-11.6-26.1-26-26.1z" class="G"/><path d="M361.7 237.9l-2-102.6m67 102.6l2.1-102.6" class="F H"/></g></g><path d="M412.8 145.6l-3.7-3.7c-3.3-3.3-1-9 3.7-9h0c4.7 0 7 5.7 3.7 9l-3.7 3.7" class="M"/><g class="I J K L"><path d="M418.6 151.4l-9.5-9.5c-3.3-3.3-1-9 3.7-9h0c4.7 0 7 5.7 3.7 9l-9.6 9.5m-61.3 266.2h97.2" class="F H"/><path d="M811.9 43.9h-47.6V22.6c0-11.8 9.6-21.3 21.3-21.3h26.2c11.8 0 21.3 9.6 21.3 21.3h0c.1 11.8-9.4 21.3-21.2 21.3z" class="G"/></g><g class="N"><circle cx="789.4" cy="22.6" r="2.4"/><circle cx="798.8" cy="22.6" r="2.4"/><circle cx="808.2" cy="22.6" r="2.4"/></g><path d="M659.4 69.4h21.9V48c0-11.8-9.6-21.3-21.3-21.3h-.6c-11.8 0-21.3 9.6-21.3 21.3h0c0 11.8 9.5 21.4 21.3 21.4z" class="G I J K L"/><g class="N"><circle cx="658.4" cy="54.1" r="2"/><path d="M664.6 44.4c0-1.4-.4-2.5-1.4-3.3-.9-.8-2.1-1.2-3.6-1.2s-2.7.4-3.5 1.3c-.8.8-1.2 1.7-1.2 2.9h3c0-.5.2-.8.5-1.1s.8-.5 1.3-.5c.6 0 1 .2 1.4.5.3.3.5.8.5 1.4 0 .8-.3 1.4-.9 1.7s-1.4.4-2.6.4h-1.2v3.9h3v-2h.3c1.5 0 2.7-.4 3.4-1 .6-.6 1-1.6 1-3z"/></g><g class="J K L"><g class="I"><path d="M705.3 84.7c-4 .2-7.3-3.7-7.5-8.8s2.8-9.4 6.8-9.6m49 18.4c4 .2 7.3-3.7 7.5-8.8s-2.8-9.4-6.8-9.6" class="F M"/><g class="G"><path d="M728.7 104.8c13.9 0 25.6-16.5 25.6-25.7l.5-7.7c1.4-16.8-6.6-32.8-26-32.8s-26 16-24.7 32.8l.5 7.7c0 9.3 10.2 25.7 24.1 25.7z"/><path d="M704.3,74c6.3-2.4,11.5-19,11.5-19c21.3,9.9,30.9,7.4,30.9,7.4s4.1,8.8,7.9,11.7" class="F"/><path d="M693.3 249.4h0c-5.6 0-10.2-4.4-10.5-10l-5.9-107.2c0-12.4 10-22.4 22.4-22.4h0l4.6 128.6c.1 6-4.6 11-10.6 11zm71.8.3h0c5.8.2 10.6-4.2 10.9-10l5.9-107.6c0-12.4-10-22.4-22.4-22.4h0l-4.6 129c-.2 5.9 4.4 10.8 10.2 11z"/><path d="M754.5 364.7h-50.3l-5-254.9h60.3z"/></g><path d="M729.3 364.7V225.2" class="F H"/><path d="M759.5 109.8h0-60.4c-12.4 0-22.4 10-22.4 22.4l5.2 93h95l5.1-93c-.1-12.4-10.1-22.4-22.5-22.4z" class="G"/><path d="M729.3 225.2V109.8" class="F H"/><g class="G"><path d="M729.4 109.1l-9.4 9.5-9.4-9.5 5.8-7z"/><path d="M748.3 109.1l-9.5 9.5-9.4-9.5 13-7z"/></g><path d="M701.4 225.2l-1.7-87.9m57.5 87.9l1.7-87.9" class="F H"/><g class="G"><path d="M729.3 364.7h-26.2c-10.7 0-19.4 8.7-19.4 19.4h24.9c0-1.9 1.6-3.5 3.5-3.5s3.5 1.6 3.5 3.5h13.8v-19.4z"/><path d="M729.5 364.7h26.2c10.7 0 19.4 8.7 19.4 19.4h-24.9c0-1.9-1.6-3.5-3.5-3.5s-3.5 1.6-3.5 3.5h-13.8v-19.4z"/></g><path d="M754.1,84.7c-4.5,5.7-11.1,8.6-17.8,8.6" class="F H"/></g><circle cx="733" cy="92.7" r="2.9" class="G"/><g class="I"><g class="F H"><path d="M684.2 379h90.3m-64.2-14.3v5.1"/><path d="M716.8 364.7v5.1m25.1-5.1v5.1m6.5-5.1v5.1"/></g><g class="G"><path d="M561.2 373.4h-22.5c-11.6 0-21 9.4-21 21h43.5v-21z"/><path d="M561.2 373.4h22.5c11.6 0 21 9.4 21 21h0-43.5v-21zm-39-112.6h0c-6.1 0-11.1-4.7-11.4-10.8l-2.7-113.4c0-13.4 7.2-24.2 20.6-24.2h0l5 136.6c.2 6.5-5 11.8-11.5 11.8z"/><path d="M591.8 210.6l-12.1 162.8h-37l-12.1-162.8" class="F"/></g></g><circle cx="560.8" cy="34.5" r="11.8" class="G"/><g class="I"><path d="M533.2,64.5c0-21,12.4-29.8,27.6-29.8h0c15.3,0,27.6,8.8,27.6,29.8H533.2z" class="G"/><path d="M560.8 49.4l-27.6 13.2.2 5.7.5 10.5c0 10 11.1 27.8 26.1 27.8s27.6-17.8 27.6-27.8l.5-10.5c.2-1.9.2-3.8.1-5.7l-27.4-13.2z" class="G"/><path d="M561.2 373.4v-58" class="F H"/><g class="G"><path d="M591.9 112.5c-20.6 3.8-41.6 3.8-62.3 0-.4-.1-.8-.1-1.1-.1h0c-13.4 0-20.6 10.8-20.6 24.2l1.3 51.8H530l.4 22.2h61.2l.5-31.1 21.4 1.6 1.9-44.5c0-13.4-8.4-24.2-21.8-24.2h0-.6c-.3 0-.6.1-1.1.1z"/><path d="M529.2 142.2l1.4 68.4m61.2 0l1.4-68.4" class="F"/></g><path d="M538.4 314.7h45.7" class="F H"/><g class="G"><path d="M556.8 139.9h8v23.3h-8z"/><path d="M553.8 153.7h0c-3 4.6-1.8 10.7 2.7 13.8l39.4 25.7c4.1 2.7 9.6 1.4 12.1-2.8l5.7-9.5-46-30.2c-4.7-3-10.9-1.7-13.9 3zm-1.6-21.1h17.1v9.4h-17.1z"/></g></g><circle cx="560.8" cy="124.2" r="11.7" class="M"/></g><g class="N"><path d="M16.2,466.9v-17.5h3.3v17.5H16.2z"/><use xlink:href="#B"/><path d="M28.1 454.4h3.5l2 9.7h.7l2.1-9.7h3.4l-3 12.5h-5.7l-3-12.5zm13.6 12.5v-12.5H45v1.3c1.4-.8 2.7-1.4 4-1.6v3.4l-3.5.9-.5.2v8.4h-3.3zm18.9-3.8c0 .5 0 .8.1 1s.3.3.6.3l-.1 2.8c-1 0-1.7-.1-2.2-.2-.4-.1-.9-.3-1.4-.7l-.6.2c-1.2.4-2.2.7-3.2.7-1.2 0-2.1-.4-2.8-1.1s-.9-1.7-.9-3 .4-2.2 1.1-2.8 1.8-.9 3.3-1l2.7-.2v-.6c0-.3-.1-.6-.4-.8s-.5-.3-.9-.3l-4.9.2-.1-2.8.9-.1c1.8-.3 3.2-.4 4.3-.4 1.5 0 2.6.3 3.3 1s1.1 1.8 1.1 3.3v4.5zm-6.2-14.9c.1.7.6 1.1 1.4 1.1s1.3-.4 1.4-1.1h3.5c-.1 1.2-.6 2.2-1.4 3-.8.7-2 1.1-3.4 1.1-1.5 0-2.6-.4-3.4-1.1s-1.3-1.7-1.4-3h3.3zm.2 16.2c.7 0 1.6-.1 2.6-.4v-2.3l-2.3.1c-.9 0-1.4.5-1.4 1.3s.4 1.3 1.1 1.3zm16.1-7.1h-3.1v6.2a.55.55 0 0 0 .3.5c.2.1.4.2.7.2l1.9-.1.1 2.7-2.5.4c-1.5 0-2.5-.3-3.1-1s-.8-1.9-.8-3.7v-5.2h-1.5v-2.9h1.5V451h3.4v3.5h3.1v2.8zm2.9-1.5c.9-1.1 2.4-1.7 4.4-1.7 2.1 0 3.5.6 4.4 1.7s1.3 2.7 1.3 4.8c0 4.4-1.9 6.6-5.8 6.6s-5.8-2.2-5.8-6.6c.1-2 .6-3.6 1.5-4.8zm2.5 7.7c.3.6 1 .9 1.8.9s1.5-.3 1.8-.9.5-1.5.5-2.8-.2-2.2-.5-2.8-1-.9-1.8-.9-1.5.3-1.8.9-.5 1.5-.5 2.8c0 1.2.2 2.2.5 2.8z"/><use xlink:href="#C"/><path d="M199.1 466.9h-3.4v-12.5h3.3v.7c1.1-.7 2.1-1 3-1 1.3 0 2.4.4 3.1 1.2 1.5-.8 2.9-1.2 4.2-1.2 1.7 0 2.8.5 3.4 1.4.6 1 1 2.5 1 4.6v6.8h-3.3v-6.7c0-1.1-.1-1.9-.4-2.4-.2-.5-.7-.8-1.4-.8-.5 0-1.2.1-2 .3l-.4.1.1 2.8v6.5H203v-6.4c0-1.2-.1-2.1-.3-2.6s-.7-.8-1.4-.8a6.28 6.28 0 0 0-1.9.3l-.3.1v9.6zm21-3.1c.4.3 1 .5 1.7.5l4.2-.1.7-.1v2.5c-1.9.5-3.7.7-5.2.7-1.9 0-3.2-.5-4.1-1.5s-1.3-2.6-1.3-4.9c0-4.5 1.8-6.7 5.5-6.7 3.6 0 5.4 1.9 5.4 5.6l-.2 2.3h-7.3c0 .8.2 1.3.6 1.7zm3.7-4.2c0-1-.2-1.7-.5-2.1s-.9-.6-1.7-.6-1.3.2-1.7.6c-.3.4-.5 1.1-.5 2.1h4.4zm16.3-10.2v17.5h-3.3v-.5c-1.2.5-2.2.8-3 .8-1.8 0-3.1-.5-3.8-1.6s-1.1-2.7-1.1-5 .4-3.9 1.3-5c.9-1 2.2-1.6 3.9-1.6.5 0 1.3.1 2.2.2l.5.1v-5.1h3.3zm-3.7 14.5l.4-.1v-6.6c-.9-.2-1.7-.2-2.5-.2-1.4 0-2 1.2-2 3.6 0 1.3.2 2.2.5 2.8s.8.8 1.5.8 1.3-.1 2.1-.3z"/><use xlink:href="#B" x="220.4"/><path d="M254.3 454.1c.9 0 2 .1 3.3.4l.7.1-.1 2.7-2.9-.2c-1.2 0-1.9.2-2.3.7s-.6 1.4-.6 2.8.2 2.3.6 2.8 1.1.8 2.3.8l2.9-.2.1 2.7-4.1.5c-1.8 0-3.2-.5-4-1.6s-1.2-2.7-1.2-5 .4-4 1.2-5c.9-1 2.3-1.5 4.1-1.5zm94.7.3h3.5l2 9.7h.7l2.1-9.7h3.4l-3 12.5H352l-3-12.5zm14.2 1.4c.9-1.1 2.4-1.7 4.4-1.7s3.5.6 4.4 1.7 1.3 2.7 1.3 4.8c0 4.4-1.9 6.6-5.8 6.6-3.8 0-5.8-2.2-5.8-6.6.1-2 .6-3.6 1.5-4.8zm2.6 7.7c.3.6 1 .9 1.8.9.9 0 1.5-.3 1.8-.9s.5-1.5.5-2.8-.2-2.2-.5-2.8-1-.9-1.8-.9c-.9 0-1.5.3-1.8.9s-.5 1.5-.5 2.8c-.1 1.2.1 2.2.5 2.8zm10.1 3.4v-17.5h3.3v17.5h-3.3z"/><use xlink:href="#D"/><path d="M399.7 466.9h-3.4v-12.5h3.3v.7c1.1-.7 2.2-1 3.1-1 1.7 0 2.8.5 3.5 1.5.6 1 1 2.5 1 4.5v6.8h-3.4v-6.7c0-1.1-.1-1.9-.4-2.4-.2-.5-.8-.8-1.5-.8s-1.3.1-2 .3l-.3.1v9.5zm17.4-9.6H414v6.2a.55.55 0 0 0 .3.5c.2.1.4.2.7.2l1.9-.1.2 2.7-2.5.4c-1.5 0-2.5-.3-3.1-1s-.8-1.9-.8-3.7v-5.2h-1.5v-2.9h1.5V451h3.3v3.5h3.1v2.8zm11.8 1v5.2c0 .4.1.7.2.8.1.2.3.3.6.3l-.1 2.5a9.49 9.49 0 0 1-2-.2 3.4 3.4 0 0 1-1.5-.7c-1.2.6-2.4.9-3.7.9-2.6 0-3.9-1.4-3.9-4.1 0-1.3.4-2.3 1.1-2.8s1.8-.9 3.3-1l2.7-.2v-.8c0-.5-.1-.9-.4-1.1s-.6-.3-1.1-.3l-4.7.2-.1-2.3c1.8-.5 3.5-.7 5.1-.7s2.8.3 3.5 1c.6.8 1 1.9 1 3.3zm-5.7 3.3c-.9.1-1.4.6-1.4 1.5s.4 1.4 1.2 1.4c.6 0 1.3-.1 2.1-.3l.4-.1v-2.7l-2.3.2z"/><use xlink:href="#C" x="345.9"/><path d="M517.6 466.3v-11.9h3.3v11.9c0 1.7-.3 3-.9 3.8s-1.8 1.7-3.6 2.6l-1.3-2.5c.8-.5 1.3-.9 1.6-1.2s.5-.6.7-1 .2-.9.2-1.7zm0-13.5v-3.4h3.3v3.4h-3.3z"/><use xlink:href="#D" x="141.6"/><use xlink:href="#C" x="451.7"/><path d="M550.6 466.9h-3.3v-12.5h3.3v.7c1.1-.7 2.2-1 3.1-1 1.7 0 2.8.5 3.5 1.5.6 1 .9 2.5.9 4.5v6.8h-3.3v-6.7c0-1.1-.1-1.9-.4-2.4-.2-.5-.8-.8-1.5-.8s-1.3.1-2 .3l-.3.1v9.5zm20-8.6v5.2c0 .4.1.7.2.8.1.2.3.3.6.3l-.1 2.5a9.49 9.49 0 0 1-2-.2 3.4 3.4 0 0 1-1.5-.7c-1.2.6-2.4.9-3.7.9-2.6 0-3.9-1.4-3.9-4.1 0-1.3.4-2.3 1.1-2.8s1.8-.9 3.3-1l2.7-.2v-.8c0-.5-.1-.9-.4-1.1s-.6-.3-1.1-.3l-4.7.2-.1-2.3c1.8-.5 3.5-.7 5.1-.7s2.8.3 3.5 1c.7.8 1 1.9 1 3.3zm-5.6 3.3c-.9.1-1.4.6-1.4 1.5s.4 1.4 1.2 1.4c.6 0 1.3-.1 2.1-.3l.4-.1v-2.7l-2.3.2zm9 5.3v-17.5h3.3v17.5H574z"/><use xlink:href="#B" x="557.8"/><path d="M596 457.6l-4.3-.4c-.8 0-1.4.1-1.6.2s-.4.4-.4.7.2.5.5.7c.3.1 1.2.3 2.5.6 1.3.2 2.3.6 2.9 1.2.6.5.8 1.4.8 2.7 0 2.7-1.7 4.1-5 4.1-1.1 0-2.4-.2-4-.5l-.8-.1.1-2.8 4.3.4c.8 0 1.4-.1 1.6-.2.3-.2.4-.4.4-.7s-.2-.5-.5-.7-1.1-.3-2.4-.5-2.3-.6-2.9-1.1-1-1.4-1-2.8c0-1.3.5-2.3 1.4-3s2.1-1 3.5-1c1 0 2.3.2 4 .5l.8.1.1 2.6zm9.7-.3h-3.1v6.2a.55.55 0 0 0 .3.5c.2.1.4.2.7.2l1.9-.1.2 2.7-2.5.4c-1.5 0-2.5-.3-3.1-1s-.8-1.9-.8-3.7v-5.2h-1.5v-2.9h1.5V451h3.3v3.5h3.1v2.8zm79.1 14.9v-17.8h3.3v.7c1.1-.7 2-1 2.9-1 1.7 0 2.9.5 3.7 1.5s1.2 2.7 1.2 5.1-.4 4.1-1.3 5-2.3 1.4-4.3 1.4c-.6 0-1.1-.1-1.8-.2h-.3v5.1h-3.4zm5.6-15.1c-.6 0-1.2.1-1.9.4l-.3.1v6.5l1.8.2c1 0 1.6-.3 2-.8s.5-1.5.5-2.9c0-2.3-.7-3.5-2.1-3.5zm17 .5l-4.3-.4c-.8 0-1.4.1-1.6.2s-.4.4-.4.7.2.5.5.7 1.2.3 2.5.6c1.3.2 2.3.6 2.9 1.2.6.5.8 1.4.8 2.7 0 2.7-1.7 4.1-5 4.1-1.1 0-2.4-.2-4-.5l-.8-.1.1-2.8 4.3.4c.8 0 1.4-.1 1.7-.2.3-.2.4-.4.4-.7s-.2-.5-.5-.7-1.1-.3-2.4-.5-2.3-.6-2.9-1.1-1-1.4-1-2.8c0-1.3.5-2.3 1.3-3 .9-.7 2.1-1 3.5-1 1 0 2.3.2 4 .5l.8.1.1 2.6z"/><use xlink:href="#B" x="687.4"/><path d="M720 466.9h-3.3v-17.5h3.3v5.6c1.2-.6 2.2-.9 3.1-.9 1.7 0 2.8.5 3.5 1.5.6 1 .9 2.5.9 4.5v6.8h-3.3v-6.7c0-1.1-.1-1.8-.4-2.3-.2-.5-.8-.8-1.5-.8s-1.3.1-2 .3l-.3.1v9.4zm11.2-11.1c.9-1.1 2.4-1.7 4.4-1.7s3.5.6 4.4 1.7 1.3 2.7 1.3 4.8c0 4.4-1.9 6.6-5.8 6.6-3.8 0-5.8-2.2-5.8-6.6.2-2 .6-3.6 1.5-4.8zm2.6 7.7c.3.6 1 .9 1.8.9.9 0 1.5-.3 1.8-.9s.5-1.5.5-2.8-.2-2.2-.5-2.8-1-.9-1.8-.9c-.9 0-1.5.3-1.8.9s-.5 1.5-.5 2.8c0 1.2.1 2.2.5 2.8zm10.2 3.4v-17.5h3.3v17.5H744zm7.2-11.1c.9-1.1 2.4-1.7 4.4-1.7 2.1 0 3.5.6 4.4 1.7s1.3 2.7 1.3 4.8c0 4.4-1.9 6.6-5.8 6.6-3.8 0-5.8-2.2-5.8-6.6.2-2 .6-3.6 1.5-4.8zm2.6 7.7c.3.6 1 .9 1.8.9.9 0 1.5-.3 1.8-.9s.5-1.5.5-2.8-.2-2.2-.5-2.8-1-.9-1.8-.9c-.9 0-1.5.3-1.8.9s-.5 1.5-.5 2.8c0 1.2.2 2.2.5 2.8zm21.4 5c0 1.4-.5 2.5-1.7 3.2-1.1.7-2.6 1-4.5 1s-3.3-.2-4.3-.8c-1-.5-1.5-1.4-1.5-2.7 0-1 .6-2 1.8-3-.6-.4-.9-1.1-.9-1.9 0-.3.2-.9.8-1.7l.2-.3c-1.1-.8-1.7-2-1.7-3.6s.5-2.7 1.4-3.5c1-.7 2.2-1.1 3.8-1.1.7 0 1.4.1 2.1.2l.4.1 4-.1v2.7l-1.9-.1a2.79 2.79 0 0 1 .5 1.7c0 1.7-.4 2.8-1.3 3.4-.8.6-2.2 1-4 1-.4 0-.7 0-1-.1-.2.4-.2.8-.2 1.1s.1.5.4.6 1 .2 2 .2c2.1 0 3.5.3 4.3.8s1.3 1.5 1.3 2.9zm-8.7.4c0 .7.9 1.1 2.6 1.1 1.8 0 2.6-.4 2.6-1.2 0-.4-.2-.7-.5-.9s-.9-.2-1.9-.2l-2.2-.2c-.3.4-.6.9-.6 1.4zm.2-10.3c0 1.2.6 1.8 1.9 1.8s1.9-.6 1.9-1.8-.6-1.8-1.9-1.8c-1.2 0-1.9.6-1.9 1.8z"/></g><defs ><path id="B" d="M22.8 452.8v-3.4h3.4v3.4h-3.4zm0 14.1v-12.5h3.4v12.5h-3.4z"/><path id="C" d="M86.2 466.9v-12.5h3.3v1.3c1.4-.8 2.7-1.4 4-1.6v3.4l-3.5.9-.5.2v8.4h-3.3z"/><path id="D" d="M389.9 454.4h3.3v12.5h-3.3v-.7c-1.2.7-2.2 1-3.1 1-1.7 0-2.9-.5-3.5-1.4-.6-1-.9-2.6-.9-4.8v-6.6h3.3v6.6c0 1.2.1 2.1.3 2.5.2.5.7.7 1.4.7s1.4-.1 2.1-.3l.3-.1v-9.4z"/></defs></svg>