<?xml version="1.0" encoding="utf-8"?>
<!-- Generator: Adobe Illustrator 24.1.0, SVG Export Plug-In . SVG Version: 6.00 Build 0)  -->
<svg version="1.1" id="Layer_1" xmlns="http://www.w3.org/2000/svg" xmlns:xlink="http://www.w3.org/1999/xlink" x="0px" y="0px"
	 viewBox="0 0 834.5 472.7" style="enable-background:new 0 0 834.5 472.7;" xml:space="preserve">
<style type="text/css">
	.st0{fill:#1C1080;}
	.st1{fill:#FFFFFF;stroke:#1C1080;stroke-width:2.5;stroke-linejoin:round;stroke-miterlimit:10;}
	.st2{fill:#FFDE59;stroke:#1C1080;stroke-width:2.5;stroke-miterlimit:10;}
	.st3{fill:#FFFFFF;stroke:#1C1080;stroke-width:2.5;stroke-miterlimit:10;}
	.st4{fill:#FFDE59;}
	.st5{fill:none;stroke:#1C1080;stroke-width:2.5;stroke-linecap:round;stroke-linejoin:round;stroke-miterlimit:10;}
	.st6{fill:#FFFFFF;stroke:#1C1080;stroke-width:2.5;stroke-linecap:round;stroke-linejoin:round;stroke-miterlimit:10;}
	.st7{fill:none;stroke:#1C1080;stroke-width:5;stroke-linecap:round;stroke-linejoin:round;stroke-miterlimit:10;}
	.st8{fill:none;stroke:#1C1080;stroke-miterlimit:10;}
	.st9{fill:none;stroke:#1C1080;stroke-width:2.5;stroke-linejoin:round;stroke-miterlimit:10;}
	.st10{fill:#FF1616;}
	.st11{fill:none;stroke:#1C1080;stroke-width:3;stroke-linecap:round;stroke-linejoin:round;stroke-miterlimit:10;}
	.st12{fill:none;stroke:#1C1080;stroke-width:2.5;stroke-miterlimit:10;}
	.st13{fill:#FFDE59;stroke:#1C1080;stroke-width:2.5;stroke-linecap:round;stroke-linejoin:round;stroke-miterlimit:10;}
	.st14{fill:#FFFFFF;stroke:#1C1080;stroke-width:2.5;stroke-linecap:round;stroke-miterlimit:10;}
</style>
<g>
	<g>
		<g>
			<path class="st6" d="M52.5,98.2c13.7,0,25.2-16.2,25.2-25.4l0.5-7.6c1.4-16.6-6.5-32.4-25.7-32.4S26.8,48.7,28.1,65.3l0.5,7.6
				C28.6,82,38.8,98.2,52.5,98.2z"/>
		</g>
		<path class="st6" d="M17.5,240.9L17.5,240.9c-5.5,0-10.1-4.3-10.4-9.9L1.3,125.2c0-12.2,9.9-22.1,22.1-22.1h0l4.6,127
			C28.2,236,23.4,240.9,17.5,240.9z"/>
		<path class="st6" d="M91.4,193.2L91.4,193.2c5.7,0.2,10.5-4.2,10.8-9.9l2.9-58.1c0-12.2-9.9-22.1-22.1-22.1h0l-1.7,79.3
			C81.1,188.2,85.6,193,91.4,193.2z"/>
		<polygon class="st6" points="72.9,365 33.4,365 23.4,103.1 82.9,103.1 		"/>
		<polygon class="st6" points="79.1,301 27.2,301 23.4,103.1 82.9,103.1 		"/>
		<line class="st5" x1="53.2" y1="365" x2="53.2" y2="217.1"/>
		<path class="st6" d="M53.2,384.2H11.4l0,0c0-10.6,8.6-19.2,19.2-19.2h22.6V384.2z"/>
		<path class="st6" d="M53.5,384.2h41.8l0,0c0-10.6-8.6-19.2-19.2-19.2H53.5V384.2z"/>
		<path class="st6" d="M83,103.1L83,103.1L83,103.1H23.4h0c-12.2,0-22.1,9.9-22.1,22.1l1.2,21.6h21.8l1.4,70.2h1.9h51.4h1.8
			l1.4-70.2h21.9l1.2-21.6C105.1,113,95.2,103.1,83,103.1z"/>
		<line class="st5" x1="25.6" y1="217.1" x2="23.9" y2="130.3"/>
		<line class="st5" x1="80.6" y1="217.1" x2="82.3" y2="130.3"/>
		<g>
			<path class="st6" d="M77.8,58.1H23.4c3-4.8,12.3-8.7,22.3-8.7c10.3,0,19.8,4.4,22.6,8.7"/>
		</g>
		<g>
			<path class="st4" d="M37.2,155.9c-0.1,0-0.3,0-0.4-0.1c-0.5-0.2-0.7-0.7-0.6-1.2l2.3-9.6l-3.7-0.9c-0.3-0.1-0.6-0.3-0.7-0.6
				c-0.1-0.3-0.1-0.6,0.1-0.9l7.4-12.9c0.2-0.3,0.5-0.5,0.9-0.5c0.1,0,0.2,0,0.4,0.1c0.5,0.2,0.7,0.7,0.6,1.2L41,140.9l3.7,0.9
				c0.3,0.1,0.6,0.3,0.7,0.6c0.1,0.3,0.1,0.6-0.1,0.9l-7.2,12.2C37.9,155.8,37.6,155.9,37.2,155.9z"/>
			<path class="st0" d="M42.4,130.4l-2.7,11.3l4.7,1.1l-7.2,12.2l2.5-10.6l-4.7-1.1L42.4,130.4 M42.4,128.4c-0.7,0-1.4,0.4-1.7,1
				l-7.4,12.9c-0.3,0.5-0.4,1.2-0.1,1.8c0.3,0.6,0.8,1,1.4,1.2l2.7,0.7l-2.1,8.6c-0.2,1,0.3,1.9,1.2,2.3c0.2,0.1,0.5,0.1,0.7,0.1
				c0.7,0,1.4-0.4,1.7-1l7.2-12.2c0.3-0.5,0.4-1.2,0.1-1.8c-0.2-0.6-0.8-1-1.4-1.2l-2.7-0.7l2.2-9.4c0.2-1-0.3-2-1.2-2.3
				C42.9,128.4,42.7,128.4,42.4,128.4L42.4,128.4z M42.4,132.4L42.4,132.4L42.4,132.4L42.4,132.4z"/>
		</g>
		<g>
			<rect x="66.4" y="129.5" class="st6" width="50.8" height="50.8"/>
			<line class="st5" x1="91.8" y1="129.5" x2="91.8" y2="180.3"/>
			<polygon class="st6" points="83.7,146.7 78.9,143.5 74,146.7 74,129.5 83.7,129.5 			"/>
		</g>
		<g>
			<line class="st5" x1="33.4" y1="365" x2="33.4" y2="371.6"/>
			<line class="st5" x1="39.7" y1="365" x2="39.7" y2="371.6"/>
		</g>
		<g>
			<line class="st5" x1="66.6" y1="365" x2="66.6" y2="371.6"/>
			<line class="st5" x1="72.9" y1="365" x2="72.9" y2="371.6"/>
		</g>
	</g>
	<g>
		<path class="st6" d="M188.3,264.6L188.3,264.6c-5.9,0-10.8-4.6-11.1-10.5l-2.7-110.2c0-13,7-23.5,20-23.5h0l4.9,132.7
			C199.6,259.4,194.5,264.6,188.3,264.6z"/>
		<path class="st6" d="M264.8,261.2L264.8,261.2c6.2,0.2,11.5-4.6,11.8-10.8l3.9-113.8c0-13.4-8.4-24.2-21.8-24.2h0l-5,137
			C253.5,255.7,258.5,261,264.8,261.2z"/>
		<polyline class="st6" points="256.2,234.7 251,373.4 201.2,373.4 196,234.7 		"/>
		<g>
			<path class="st6" d="M259.8,100.9h-68.2V67c0-18.8,15.3-34.1,34.1-34.1h0c18.8,0,34.1,15.3,34.1,34.1V100.9z"/>
			<g>
				<g>
					<path class="st6" d="M236.8,49.4l-38.6,13.2c0,1.9,0,3.8,0.2,5.7l0.5,10.5c0,10,11.1,27.8,26.1,27.8s27.6-17.8,27.6-27.8
						l0.5-10.5c0.2-1.9,0.2-3.8,0.1-5.7L236.8,49.4z"/>
				</g>
			</g>
		</g>
		<line class="st5" x1="226.1" y1="373.4" x2="226.1" y2="234.7"/>
		<g>
			<path class="st6" d="M256.8,112.5c-20.6,3.8-41.6,3.8-62.3,0c-0.4-0.1-0.8-0.1-1.1-0.1l0,0h0c-13.4,0-20.6,10.8-20.6,24.2
				l2.4,98.1H196l0,0h2h56.3h1.9l0,0l20.9,0l3.4-98.1c0-13.4-8.4-24.2-21.8-24.2h0h-0.1h-0.7C257.6,112.4,257.3,112.5,256.8,112.5z"
				/>
			<line class="st6" x1="194.1" y1="142.2" x2="196" y2="234.7"/>
			<line class="st6" x1="256.2" y1="234.7" x2="258.1" y2="142.2"/>
		</g>
		<g>
			<line class="st5" x1="245.2" y1="115" x2="243.3" y2="134.1"/>
			<line class="st5" x1="212.7" y1="141.3" x2="206.2" y2="115"/>
			<circle class="st13" cx="242.5" cy="139.8" r="5.8"/>
			<path class="st5" d="M212.6,140.8l-5,6.8c-5,6.8-6.7,15.4-4.7,23.5v0c0.8,3.3,4.2,5.3,7.5,4.5l0,0"/>
			<path class="st5" d="M212.6,140.8l7.6,3.7c7.5,3.7,13.1,10.5,15.1,18.6v0c0.8,3.3-1.2,6.7-4.5,7.5h0"/>
		</g>
		<g>
			<path class="st6" d="M226.1,373.4h-22.5c-11.6,0-21,9.4-21,21l0,0h26.9c0,0,0,0,0,0c0-2.1,1.7-3.8,3.8-3.8s3.8,1.7,3.8,3.8
				c0,0,0,0,0,0h9.1V373.4z"/>
		</g>
		<g>
			<path class="st6" d="M226.1,373.4h22.5c11.6,0,21,9.4,21,21l0,0h-26.9c0,0,0,0,0,0c0-2.1-1.7-3.8-3.8-3.8s-3.8,1.7-3.8,3.8
				c0,0,0,0,0,0h-9.1V373.4z"/>
		</g>
	</g>
	<g>
		<g>
			<g>
				<path class="st6" d="M393.5,97.4c16.2,0,29.8-19.2,29.8-30l0.6-9c1.6-19.6-7.7-38.3-30.4-38.3c-22.7,0-30.4,18.7-28.8,38.3
					l0.6,9C365.3,78.2,377.3,97.4,393.5,97.4z"/>
				<g>
					<path class="st6" d="M365,52.2c7.3-2.8,21.4-11.9,21.4-11.9c24.8,11.6,37,10.8,37,10.8"/>
				</g>
			</g>
			<path class="st6" d="M352.2,266.1L352.2,266.1c-6.5,0-12-5.1-12.3-11.7l-6.9-125.1c0-14.4,11.7-26.1,26.1-26.1h0l5.4,150.1
				C364.7,260.3,359.1,266.1,352.2,266.1z"/>
			<path class="st6" d="M436,266.5L436,266.5c6.7,0.2,12.4-4.9,12.8-11.6l6.9-125.6c0-14.4-11.7-26.1-26.1-26.1h0l-5.4,150.6
				C423.9,260.6,429.2,266.3,436,266.5z"/>
			<polygon class="st6" points="423.6,400.8 364.9,400.8 359.1,103.2 429.4,103.2 			"/>
			<line class="st5" x1="394.3" y1="400.8" x2="394.3" y2="237.9"/>
			<path class="st6" d="M394.3,423.5h-49.4v0c0-12.5,10.2-22.7,22.7-22.7h26.7V423.5z"/>
			<path class="st6" d="M394.7,423.5h49.4v0c0-12.5-10.2-22.7-22.7-22.7h-26.7V423.5z"/>
			<path class="st6" d="M429.5,103.2L429.5,103.2h-0.1H359h0c-14.4,0-26.1,11.7-26.1,26.1l1.4,25.6H360l1.6,83h2.2h60.8h2.1l1.6-83
				h25.8l1.4-25.6C455.6,114.9,443.9,103.2,429.5,103.2z"/>
			<line class="st5" x1="361.7" y1="237.9" x2="359.7" y2="135.3"/>
			<line class="st5" x1="426.7" y1="237.9" x2="428.8" y2="135.3"/>
			<path class="st4" d="M412.8,145.6l-3.7-3.7c-3.3-3.3-1-9,3.7-9h0c4.7,0,7,5.7,3.7,9L412.8,145.6"/>
			<path class="st5" d="M418.6,151.4l-9.5-9.5c-3.3-3.3-1-9,3.7-9h0c4.7,0,7,5.7,3.7,9l-9.6,9.5"/>
		</g>
		<line class="st5" x1="345.6" y1="417.6" x2="442.8" y2="417.6"/>
	</g>
	<g>
		<path class="st6" d="M811.9,43.9h-47.6V22.6c0-11.8,9.6-21.3,21.3-21.3h26.2c11.8,0,21.3,9.6,21.3,21.3v0
			C833.2,34.4,823.7,43.9,811.9,43.9z"/>
		<g>
			<circle class="st0" cx="789.4" cy="22.6" r="2.4"/>
			<circle class="st0" cx="798.8" cy="22.6" r="2.4"/>
			<circle class="st0" cx="808.2" cy="22.6" r="2.4"/>
		</g>
		<path class="st6" d="M659.4,69.4h21.9V48c0-11.8-9.6-21.3-21.3-21.3h-0.6c-11.8,0-21.3,9.6-21.3,21.3v0
			C638.1,59.8,647.6,69.4,659.4,69.4z"/>
		<g>
			<circle class="st0" cx="658.4" cy="54.1" r="2"/>
			<g>
				<path class="st0" d="M664.6,44.4c0-1.4-0.4-2.5-1.4-3.3c-0.9-0.8-2.1-1.2-3.6-1.2c-1.5,0-2.7,0.4-3.5,1.3
					c-0.8,0.8-1.2,1.7-1.2,2.9h3c0-0.5,0.2-0.8,0.5-1.1c0.3-0.3,0.8-0.5,1.3-0.5c0.6,0,1,0.2,1.4,0.5c0.3,0.3,0.5,0.8,0.5,1.4
					c0,0.8-0.3,1.4-0.9,1.7c-0.6,0.3-1.4,0.4-2.6,0.4h-1.2v3.9h3v-2l0.3,0c1.5,0,2.7-0.4,3.4-1C664.2,46.8,664.6,45.8,664.6,44.4z"
					/>
			</g>
		</g>
		<g>
			<path class="st13" d="M705.3,84.7c-4,0.2-7.3-3.7-7.5-8.8c-0.2-5.1,2.8-9.4,6.8-9.6"/>
			<path class="st13" d="M753.6,84.7c4,0.2,7.3-3.7,7.5-8.8c0.2-5.1-2.8-9.4-6.8-9.6"/>
			<g>
				<g>
					<path class="st6" d="M728.7,104.8c13.9,0,25.6-16.5,25.6-25.7l0.5-7.7c1.4-16.8-6.6-32.8-26-32.8s-26,16-24.7,32.8l0.5,7.7
						C704.6,88.4,714.8,104.8,728.7,104.8z"/>
					<g>
						<path class="st6" d="M704.3,74c6.3-2.4,11.5-19,11.5-19c21.3,9.9,30.9,7.4,30.9,7.4s4.1,8.8,7.9,11.7"/>
					</g>
				</g>
				<path class="st6" d="M693.3,249.4L693.3,249.4c-5.6,0-10.2-4.4-10.5-10l-5.9-107.2c0-12.4,10-22.4,22.4-22.4l0,0l4.6,128.6
					C704,244.4,699.3,249.4,693.3,249.4z"/>
				<path class="st6" d="M765.1,249.7L765.1,249.7c5.8,0.2,10.6-4.2,10.9-10l5.9-107.6c0-12.4-10-22.4-22.4-22.4h0l-4.6,129
					C754.7,244.6,759.3,249.5,765.1,249.7z"/>
				<polygon class="st6" points="754.5,364.7 704.2,364.7 699.2,109.8 759.5,109.8 				"/>
				<line class="st5" x1="729.3" y1="364.7" x2="729.3" y2="225.2"/>
				<path class="st6" d="M759.5,109.8L759.5,109.8L759.5,109.8h-60.4h0c-12.4,0-22.4,10-22.4,22.4l5.2,93h19.5l0,0h1.9h52.1h1.8l0,0
					h19.7l5.1-93C781.9,119.8,771.9,109.8,759.5,109.8z"/>
				<line class="st5" x1="729.3" y1="225.2" x2="729.3" y2="109.8"/>
				<g>
					<polygon class="st6" points="729.4,109.1 720,118.6 710.6,109.1 716.4,102.1 					"/>
					<polygon class="st6" points="748.3,109.1 738.8,118.6 729.4,109.1 742.4,102.1 					"/>
				</g>
				<line class="st5" x1="701.4" y1="225.2" x2="699.7" y2="137.3"/>
				<line class="st5" x1="757.2" y1="225.2" x2="758.9" y2="137.3"/>
				<g>
					<path class="st6" d="M729.3,364.7h-26.2c-10.7,0-19.4,8.7-19.4,19.4h5.4h19.5c0,0,0,0,0,0c0-1.9,1.6-3.5,3.5-3.5
						s3.5,1.6,3.5,3.5c0,0,0,0,0,0h13.8V364.7z"/>
				</g>
				<g>
					<path class="st6" d="M729.5,364.7h26.2c10.7,0,19.4,8.7,19.4,19.4h-5.4h-19.5c0,0,0,0,0,0c0-1.9-1.6-3.5-3.5-3.5
						c-1.9,0-3.5,1.6-3.5,3.5c0,0,0,0,0,0h-13.8V364.7z"/>
				</g>
			</g>
			<path class="st5" d="M754.1,84.7c-4.5,5.7-11.1,8.6-17.8,8.6"/>
			<circle class="st6" cx="733" cy="92.7" r="2.9"/>
			<line class="st5" x1="684.2" y1="379" x2="774.5" y2="379"/>
			<line class="st5" x1="710.3" y1="364.7" x2="710.3" y2="369.8"/>
			<line class="st5" x1="716.8" y1="364.7" x2="716.8" y2="369.8"/>
			<line class="st5" x1="741.9" y1="364.7" x2="741.9" y2="369.8"/>
			<line class="st5" x1="748.4" y1="364.7" x2="748.4" y2="369.8"/>
		</g>
	</g>
	<g>
		<g>
			<path class="st6" d="M561.2,373.4h-22.5c-11.6,0-21,9.4-21,21l0,0h43.5V373.4z"/>
		</g>
		<g>
			<path class="st6" d="M561.2,373.4h22.5c11.6,0,21,9.4,21,21l0,0h-43.5V373.4z"/>
		</g>
		<path class="st6" d="M522.2,260.8L522.2,260.8c-6.1,0-11.1-4.7-11.4-10.8l-2.7-113.4c0-13.4,7.2-24.2,20.6-24.2h0l5,136.6
			C533.9,255.5,528.7,260.8,522.2,260.8z"/>
		<polyline class="st6" points="591.8,210.6 579.7,373.4 542.7,373.4 530.6,210.6 		"/>
		<g>
			<circle class="st6" cx="560.8" cy="34.5" r="11.8"/>
			<path class="st6" d="M533.2,64.5c0-21,12.4-29.8,27.6-29.8h0c15.3,0,27.6,8.8,27.6,29.8H533.2z"/>
			<g>
				<g>
					<path class="st6" d="M560.8,49.4l-27.6,13.2c0,1.9,0,3.8,0.2,5.7l0.5,10.5c0,10,11.1,27.8,26.1,27.8s27.6-17.8,27.6-27.8
						l0.5-10.5c0.2-1.9,0.2-3.8,0.1-5.7L560.8,49.4z"/>
				</g>
			</g>
		</g>
		<line class="st5" x1="561.2" y1="373.4" x2="561.2" y2="315.4"/>
		<g>
			<path class="st6" d="M591.9,112.5c-20.6,3.8-41.6,3.8-62.3,0c-0.4-0.1-0.8-0.1-1.1-0.1l0,0h0c-13.4,0-20.6,10.8-20.6,24.2
				l1.3,51.8h20.8l0.4,22.2h61.2l0.5-31.1l21.4,1.6l1.9-44.5c0-13.4-8.4-24.2-21.8-24.2h0h-0.1H593
				C592.7,112.4,592.4,112.5,591.9,112.5z"/>
			<line class="st6" x1="529.2" y1="142.2" x2="530.6" y2="210.6"/>
			<line class="st6" x1="591.8" y1="210.6" x2="593.2" y2="142.2"/>
		</g>
		<line class="st5" x1="538.4" y1="314.7" x2="584.1" y2="314.7"/>
		<rect x="556.8" y="139.9" class="st6" width="8" height="23.3"/>
		<path class="st6" d="M553.8,153.7L553.8,153.7c-3,4.6-1.8,10.7,2.7,13.8l39.4,25.7c4.1,2.7,9.6,1.4,12.1-2.8l5.7-9.5l-46-30.2
			C563,147.7,556.8,149,553.8,153.7z"/>
		<rect x="552.2" y="132.6" class="st6" width="17.1" height="9.4"/>
		<circle class="st13" cx="560.8" cy="124.2" r="11.7"/>
	</g>
	<g>
		<path class="st0" d="M16.2,466.9v-17.5h3.3v17.5H16.2z"/>
		<path class="st0" d="M22.8,452.8v-3.4h3.4v3.4H22.8z M22.8,466.9v-12.5h3.4v12.5H22.8z"/>
		<path class="st0" d="M28.1,454.4h3.5l2,9.7h0.7l2.1-9.7h3.4l-3,12.5h-5.7L28.1,454.4z"/>
		<path class="st0" d="M41.7,466.9v-12.5H45v1.3c1.4-0.8,2.7-1.4,4-1.6v3.4c-1.4,0.3-2.5,0.6-3.5,0.9l-0.5,0.2v8.4H41.7z"/>
		<path class="st0" d="M60.6,463.1c0,0.5,0,0.8,0.1,1s0.3,0.3,0.6,0.3l-0.1,2.8c-1,0-1.7-0.1-2.2-0.2c-0.4-0.1-0.9-0.3-1.4-0.7
			l-0.6,0.2c-1.2,0.4-2.2,0.7-3.2,0.7c-1.2,0-2.1-0.4-2.8-1.1s-0.9-1.7-0.9-3c0-1.3,0.4-2.2,1.1-2.8c0.7-0.6,1.8-0.9,3.3-1l2.7-0.2
			v-0.6c0-0.3-0.1-0.6-0.4-0.8s-0.5-0.3-0.9-0.3c-1.2,0-2.9,0.1-4.9,0.2l-0.1-2.8l0.9-0.1c1.8-0.3,3.2-0.4,4.3-0.4
			c1.5,0,2.6,0.3,3.3,1s1.1,1.8,1.1,3.3V463.1z M54.4,448.2c0.1,0.7,0.6,1.1,1.4,1.1c0.8,0,1.3-0.4,1.4-1.1h3.5
			c-0.1,1.2-0.6,2.2-1.4,3c-0.8,0.7-2,1.1-3.4,1.1c-1.5,0-2.6-0.4-3.4-1.1c-0.8-0.7-1.3-1.7-1.4-3H54.4z M54.6,464.4
			c0.7,0,1.6-0.1,2.6-0.4v-2.3l-2.3,0.1c-0.9,0-1.4,0.5-1.4,1.3C53.5,463.9,53.9,464.4,54.6,464.4z"/>
		<path class="st0" d="M70.7,457.3h-3.1v5.1c0,0.5,0,0.9,0,1.1s0.1,0.4,0.3,0.5c0.2,0.1,0.4,0.2,0.7,0.2l1.9-0.1l0.1,2.7
			c-1.1,0.2-2,0.4-2.5,0.4c-1.5,0-2.5-0.3-3.1-1s-0.8-1.9-0.8-3.7v-5.2h-1.5v-2.9h1.5V451h3.4v3.5h3.1V457.3z"/>
		<path class="st0" d="M73.6,455.8c0.9-1.1,2.4-1.7,4.4-1.7c2.1,0,3.5,0.6,4.4,1.7c0.9,1.1,1.3,2.7,1.3,4.8c0,4.4-1.9,6.6-5.8,6.6
			s-5.8-2.2-5.8-6.6C72.2,458.6,72.7,457,73.6,455.8z M76.1,463.5c0.3,0.6,1,0.9,1.8,0.9s1.5-0.3,1.8-0.9s0.5-1.5,0.5-2.8
			c0-1.3-0.2-2.2-0.5-2.8s-1-0.9-1.8-0.9s-1.5,0.3-1.8,0.9c-0.3,0.6-0.5,1.5-0.5,2.8C75.6,461.9,75.8,462.9,76.1,463.5z"/>
		<path class="st0" d="M86.2,466.9v-12.5h3.3v1.3c1.4-0.8,2.7-1.4,4-1.6v3.4c-1.4,0.3-2.5,0.6-3.5,0.9l-0.5,0.2v8.4H86.2z"/>
	</g>
	<g>
		<path class="st0" d="M199.1,466.9h-3.4v-12.5h3.3v0.7c1.1-0.7,2.1-1,3-1c1.3,0,2.4,0.4,3.1,1.2c1.5-0.8,2.9-1.2,4.2-1.2
			c1.7,0,2.8,0.5,3.4,1.4c0.6,1,1,2.5,1,4.6v6.8h-3.3v-6.7c0-1.1-0.1-1.9-0.4-2.4c-0.2-0.5-0.7-0.8-1.4-0.8c-0.5,0-1.2,0.1-2,0.3
			l-0.4,0.1c0.1,1.2,0.1,2.2,0.1,2.8v6.5h-3.3v-6.4c0-1.2-0.1-2.1-0.3-2.6c-0.2-0.5-0.7-0.8-1.4-0.8c-0.6,0-1.3,0.1-1.9,0.3
			l-0.3,0.1V466.9z"/>
		<path class="st0" d="M220.1,463.8c0.4,0.3,1,0.5,1.7,0.5c1.5,0,2.9,0,4.2-0.1l0.7-0.1l0,2.5c-1.9,0.5-3.7,0.7-5.2,0.7
			c-1.9,0-3.2-0.5-4.1-1.5c-0.9-1-1.3-2.6-1.3-4.9c0-4.5,1.8-6.7,5.5-6.7c3.6,0,5.4,1.9,5.4,5.6l-0.2,2.3h-7.3
			C219.5,462.9,219.7,463.4,220.1,463.8z M223.8,459.6c0-1-0.2-1.7-0.5-2.1c-0.3-0.4-0.9-0.6-1.7-0.6c-0.8,0-1.3,0.2-1.7,0.6
			c-0.3,0.4-0.5,1.1-0.5,2.1H223.8z"/>
		<path class="st0" d="M240.1,449.4v17.5h-3.3v-0.5c-1.2,0.5-2.2,0.8-3,0.8c-1.8,0-3.1-0.5-3.8-1.6s-1.1-2.7-1.1-5s0.4-3.9,1.3-5
			c0.9-1,2.2-1.6,3.9-1.6c0.5,0,1.3,0.1,2.2,0.2l0.5,0.1v-5.1H240.1z M236.4,463.9l0.4-0.1v-6.6c-0.9-0.2-1.7-0.2-2.5-0.2
			c-1.4,0-2,1.2-2,3.6c0,1.3,0.2,2.2,0.5,2.8s0.8,0.8,1.5,0.8S235.6,464.1,236.4,463.9z"/>
		<path class="st0" d="M243.2,452.8v-3.4h3.4v3.4H243.2z M243.2,466.9v-12.5h3.4v12.5H243.2z"/>
		<path class="st0" d="M254.3,454.1c0.9,0,2,0.1,3.3,0.4l0.7,0.1l-0.1,2.7c-1.3-0.1-2.3-0.2-2.9-0.2c-1.2,0-1.9,0.2-2.3,0.7
			c-0.4,0.5-0.6,1.4-0.6,2.8s0.2,2.3,0.6,2.8s1.1,0.8,2.3,0.8l2.9-0.2l0.1,2.7c-1.8,0.3-3.1,0.5-4.1,0.5c-1.8,0-3.2-0.5-4-1.6
			s-1.2-2.7-1.2-5s0.4-4,1.2-5C251.1,454.6,252.5,454.1,254.3,454.1z"/>
	</g>
	<g>
		<path class="st0" d="M349,454.4h3.5l2,9.7h0.7l2.1-9.7h3.4l-3,12.5H352L349,454.4z"/>
		<path class="st0" d="M363.2,455.8c0.9-1.1,2.4-1.7,4.4-1.7s3.5,0.6,4.4,1.7c0.9,1.1,1.3,2.7,1.3,4.8c0,4.4-1.9,6.6-5.8,6.6
			c-3.8,0-5.8-2.2-5.8-6.6C361.8,458.6,362.3,457,363.2,455.8z M365.8,463.5c0.3,0.6,1,0.9,1.8,0.9c0.9,0,1.5-0.3,1.8-0.9
			s0.5-1.5,0.5-2.8c0-1.3-0.2-2.2-0.5-2.8s-1-0.9-1.8-0.9c-0.9,0-1.5,0.3-1.8,0.9c-0.3,0.6-0.5,1.5-0.5,2.8
			C365.2,461.9,365.4,462.9,365.8,463.5z"/>
		<path class="st0" d="M375.9,466.9v-17.5h3.3v17.5H375.9z"/>
		<path class="st0" d="M389.9,454.4h3.3v12.5h-3.3v-0.7c-1.2,0.7-2.2,1-3.1,1c-1.7,0-2.9-0.5-3.5-1.4c-0.6-1-0.9-2.6-0.9-4.8v-6.6
			h3.3v6.6c0,1.2,0.1,2.1,0.3,2.5c0.2,0.5,0.7,0.7,1.4,0.7c0.7,0,1.4-0.1,2.1-0.3l0.3-0.1V454.4z"/>
		<path class="st0" d="M399.7,466.9h-3.4v-12.5h3.3v0.7c1.1-0.7,2.2-1,3.1-1c1.7,0,2.8,0.5,3.5,1.5c0.6,1,1,2.5,1,4.5v6.8h-3.4v-6.7
			c0-1.1-0.1-1.9-0.4-2.4c-0.2-0.5-0.8-0.8-1.5-0.8c-0.7,0-1.3,0.1-2,0.3l-0.3,0.1V466.9z"/>
		<path class="st0" d="M417.1,457.3H414v5.1c0,0.5,0,0.9,0,1.1c0,0.2,0.1,0.4,0.3,0.5c0.2,0.1,0.4,0.2,0.7,0.2l1.9-0.1l0.2,2.7
			c-1.1,0.2-2,0.4-2.5,0.4c-1.5,0-2.5-0.3-3.1-1s-0.8-1.9-0.8-3.7v-5.2h-1.5v-2.9h1.5V451h3.3v3.5h3.1V457.3z"/>
		<path class="st0" d="M428.9,458.3v5.2c0,0.4,0.1,0.7,0.2,0.8c0.1,0.2,0.3,0.3,0.6,0.3l-0.1,2.5c-0.9,0-1.5-0.1-2-0.2
			c-0.5-0.1-1-0.3-1.5-0.7c-1.2,0.6-2.4,0.9-3.7,0.9c-2.6,0-3.9-1.4-3.9-4.1c0-1.3,0.4-2.3,1.1-2.8s1.8-0.9,3.3-1l2.7-0.2v-0.8
			c0-0.5-0.1-0.9-0.4-1.1s-0.6-0.3-1.1-0.3l-4.7,0.2l-0.1-2.3c1.8-0.5,3.5-0.7,5.1-0.7s2.8,0.3,3.5,1
			C428.5,455.8,428.9,456.9,428.9,458.3z M423.2,461.6c-0.9,0.1-1.4,0.6-1.4,1.5c0,0.9,0.4,1.4,1.2,1.4c0.6,0,1.3-0.1,2.1-0.3
			l0.4-0.1v-2.7L423.2,461.6z"/>
		<path class="st0" d="M432.1,466.9v-12.5h3.3v1.3c1.4-0.8,2.7-1.4,4-1.6v3.4c-1.4,0.3-2.5,0.6-3.5,0.9l-0.5,0.2v8.4H432.1z"/>
	</g>
	<g>
		<path class="st0" d="M517.6,466.3v-11.9h3.3v11.9c0,1.7-0.3,3-0.9,3.8s-1.8,1.7-3.6,2.6l-1.3-2.5c0.8-0.5,1.3-0.9,1.6-1.2
			c0.3-0.3,0.5-0.6,0.7-1C517.6,467.6,517.6,467.1,517.6,466.3z M517.6,452.8v-3.4h3.3v3.4H517.6z"/>
		<path class="st0" d="M531.5,454.4h3.3v12.5h-3.3v-0.7c-1.2,0.7-2.2,1-3.1,1c-1.7,0-2.9-0.5-3.5-1.4c-0.6-1-0.9-2.6-0.9-4.8v-6.6
			h3.3v6.6c0,1.2,0.1,2.1,0.3,2.5c0.2,0.5,0.7,0.7,1.4,0.7c0.7,0,1.4-0.1,2.1-0.3l0.3-0.1V454.4z"/>
		<path class="st0" d="M537.9,466.9v-12.5h3.3v1.3c1.4-0.8,2.7-1.4,4-1.6v3.4c-1.3,0.3-2.5,0.6-3.5,0.9l-0.5,0.2v8.4H537.9z"/>
		<path class="st0" d="M550.6,466.9h-3.3v-12.5h3.3v0.7c1.1-0.7,2.2-1,3.1-1c1.7,0,2.8,0.5,3.5,1.5c0.6,1,0.9,2.5,0.9,4.5v6.8h-3.3
			v-6.7c0-1.1-0.1-1.9-0.4-2.4c-0.2-0.5-0.8-0.8-1.5-0.8c-0.7,0-1.3,0.1-2,0.3l-0.3,0.1V466.9z"/>
		<path class="st0" d="M570.6,458.3v5.2c0,0.4,0.1,0.7,0.2,0.8c0.1,0.2,0.3,0.3,0.6,0.3l-0.1,2.5c-0.9,0-1.5-0.1-2-0.2
			c-0.5-0.1-1-0.3-1.5-0.7c-1.2,0.6-2.4,0.9-3.7,0.9c-2.6,0-3.9-1.4-3.9-4.1c0-1.3,0.4-2.3,1.1-2.8s1.8-0.9,3.3-1l2.7-0.2v-0.8
			c0-0.5-0.1-0.9-0.4-1.1s-0.6-0.3-1.1-0.3l-4.7,0.2l-0.1-2.3c1.8-0.5,3.5-0.7,5.1-0.7s2.8,0.3,3.5,1
			C570.3,455.8,570.6,456.9,570.6,458.3z M565,461.6c-0.9,0.1-1.4,0.6-1.4,1.5c0,0.9,0.4,1.4,1.2,1.4c0.6,0,1.3-0.1,2.1-0.3l0.4-0.1
			v-2.7L565,461.6z"/>
		<path class="st0" d="M574,466.9v-17.5h3.3v17.5H574z"/>
		<path class="st0" d="M580.6,452.8v-3.4h3.4v3.4H580.6z M580.6,466.9v-12.5h3.4v12.5H580.6z"/>
		<path class="st0" d="M596,457.6c-2.1-0.3-3.5-0.4-4.3-0.4s-1.4,0.1-1.6,0.2c-0.2,0.1-0.4,0.4-0.4,0.7s0.2,0.5,0.5,0.7
			c0.3,0.1,1.2,0.3,2.5,0.6c1.3,0.2,2.3,0.6,2.9,1.2c0.6,0.5,0.8,1.4,0.8,2.7c0,2.7-1.7,4.1-5,4.1c-1.1,0-2.4-0.2-4-0.5l-0.8-0.1
			l0.1-2.8c2.1,0.3,3.5,0.4,4.3,0.4c0.8,0,1.4-0.1,1.6-0.2c0.3-0.2,0.4-0.4,0.4-0.7c0-0.3-0.2-0.5-0.5-0.7c-0.3-0.2-1.1-0.3-2.4-0.5
			c-1.3-0.2-2.3-0.6-2.9-1.1c-0.6-0.5-1-1.4-1-2.8c0-1.3,0.5-2.3,1.4-3c0.9-0.7,2.1-1,3.5-1c1,0,2.3,0.2,4,0.5l0.8,0.1L596,457.6z"
			/>
		<path class="st0" d="M605.7,457.3h-3.1v5.1c0,0.5,0,0.9,0,1.1c0,0.2,0.1,0.4,0.3,0.5c0.2,0.1,0.4,0.2,0.7,0.2l1.9-0.1l0.2,2.7
			c-1.1,0.2-2,0.4-2.5,0.4c-1.5,0-2.5-0.3-3.1-1s-0.8-1.9-0.8-3.7v-5.2h-1.5v-2.9h1.5V451h3.3v3.5h3.1V457.3z"/>
	</g>
	<g>
		<path class="st0" d="M684.8,472.2v-17.8h3.3v0.7c1.1-0.7,2-1,2.9-1c1.7,0,2.9,0.5,3.7,1.5c0.8,1,1.2,2.7,1.2,5.1s-0.4,4.1-1.3,5
			c-0.9,0.9-2.3,1.4-4.3,1.4c-0.6,0-1.1-0.1-1.8-0.2l-0.3,0v5.1H684.8z M690.4,457.1c-0.6,0-1.2,0.1-1.9,0.4l-0.3,0.1v6.5
			c0.8,0.1,1.4,0.2,1.8,0.2c1,0,1.6-0.3,2-0.8s0.5-1.5,0.5-2.9C692.5,458.3,691.8,457.1,690.4,457.1z"/>
		<path class="st0" d="M707.4,457.6c-2.1-0.3-3.5-0.4-4.3-0.4s-1.4,0.1-1.6,0.2c-0.2,0.1-0.4,0.4-0.4,0.7s0.2,0.5,0.5,0.7
			s1.2,0.3,2.5,0.6c1.3,0.2,2.3,0.6,2.9,1.2c0.6,0.5,0.8,1.4,0.8,2.7c0,2.7-1.7,4.1-5,4.1c-1.1,0-2.4-0.2-4-0.5l-0.8-0.1l0.1-2.8
			c2.1,0.3,3.5,0.4,4.3,0.4s1.4-0.1,1.7-0.2c0.3-0.2,0.4-0.4,0.4-0.7c0-0.3-0.2-0.5-0.5-0.7s-1.1-0.3-2.4-0.5
			c-1.3-0.2-2.3-0.6-2.9-1.1c-0.6-0.5-1-1.4-1-2.8c0-1.3,0.5-2.3,1.3-3c0.9-0.7,2.1-1,3.5-1c1,0,2.3,0.2,4,0.5l0.8,0.1L707.4,457.6z
			"/>
		<path class="st0" d="M710.2,452.8v-3.4h3.4v3.4H710.2z M710.2,466.9v-12.5h3.4v12.5H710.2z"/>
		<path class="st0" d="M720,466.9h-3.3v-17.5h3.3v5.6c1.2-0.6,2.2-0.9,3.1-0.9c1.7,0,2.8,0.5,3.5,1.5c0.6,1,0.9,2.5,0.9,4.5v6.8
			h-3.3v-6.7c0-1.1-0.1-1.8-0.4-2.3c-0.2-0.5-0.8-0.8-1.5-0.8c-0.7,0-1.3,0.1-2,0.3l-0.3,0.1V466.9z"/>
		<path class="st0" d="M731.2,455.8c0.9-1.1,2.4-1.7,4.4-1.7s3.5,0.6,4.4,1.7c0.9,1.1,1.3,2.7,1.3,4.8c0,4.4-1.9,6.6-5.8,6.6
			c-3.8,0-5.8-2.2-5.8-6.6C729.9,458.6,730.3,457,731.2,455.8z M733.8,463.5c0.3,0.6,1,0.9,1.8,0.9c0.9,0,1.5-0.3,1.8-0.9
			s0.5-1.5,0.5-2.8c0-1.3-0.2-2.2-0.5-2.8s-1-0.9-1.8-0.9c-0.9,0-1.5,0.3-1.8,0.9c-0.3,0.6-0.5,1.5-0.5,2.8
			C733.3,461.9,733.4,462.9,733.8,463.5z"/>
		<path class="st0" d="M744,466.9v-17.5h3.3v17.5H744z"/>
		<path class="st0" d="M751.2,455.8c0.9-1.1,2.4-1.7,4.4-1.7c2.1,0,3.5,0.6,4.4,1.7c0.9,1.1,1.3,2.7,1.3,4.8c0,4.4-1.9,6.6-5.8,6.6
			c-3.8,0-5.8-2.2-5.8-6.6C749.9,458.6,750.3,457,751.2,455.8z M753.8,463.5c0.3,0.6,1,0.9,1.8,0.9c0.9,0,1.5-0.3,1.8-0.9
			s0.5-1.5,0.5-2.8c0-1.3-0.2-2.2-0.5-2.8s-1-0.9-1.8-0.9c-0.9,0-1.5,0.3-1.8,0.9s-0.5,1.5-0.5,2.8
			C753.3,461.9,753.5,462.9,753.8,463.5z"/>
		<path class="st0" d="M775.2,468.5c0,1.4-0.5,2.5-1.7,3.2c-1.1,0.7-2.6,1-4.5,1s-3.3-0.2-4.3-0.8c-1-0.5-1.5-1.4-1.5-2.7
			c0-1,0.6-2,1.8-3c-0.6-0.4-0.9-1.1-0.9-1.9c0-0.3,0.2-0.9,0.8-1.7l0.2-0.3c-1.1-0.8-1.7-2-1.7-3.6c0-1.6,0.5-2.7,1.4-3.5
			c1-0.7,2.2-1.1,3.8-1.1c0.7,0,1.4,0.1,2.1,0.2l0.4,0.1l4-0.1v2.7l-1.9-0.1c0.4,0.6,0.5,1.1,0.5,1.7c0,1.7-0.4,2.8-1.3,3.4
			c-0.8,0.6-2.2,1-4,1c-0.4,0-0.7,0-1-0.1c-0.2,0.4-0.2,0.8-0.2,1.1s0.1,0.5,0.4,0.6s1,0.2,2,0.2c2.1,0,3.5,0.3,4.3,0.8
			S775.2,467.1,775.2,468.5z M766.5,468.9c0,0.7,0.9,1.1,2.6,1.1c1.8,0,2.6-0.4,2.6-1.2c0-0.4-0.2-0.7-0.5-0.9s-0.9-0.2-1.9-0.2
			l-2.2-0.2C766.8,467.9,766.5,468.4,766.5,468.9z M766.7,458.6c0,1.2,0.6,1.8,1.9,1.8c1.3,0,1.9-0.6,1.9-1.8c0-1.2-0.6-1.8-1.9-1.8
			C767.4,456.8,766.7,457.4,766.7,458.6z"/>
	</g>
</g>
</svg>
